<mxfile host="app.diagrams.net" agent="Mozilla/5.0 (Windows NT 10.0; Win64; x64) AppleWebKit/537.36 (KHTML, like Gecko) Chrome/137.0.0.0 Safari/537.36" version="27.1.1">
  <diagram name="Page-1" id="PX7YQMbzcEBbd6iVwpfB">
    <mxGraphModel dx="1188" dy="748" grid="1" gridSize="10" guides="1" tooltips="1" connect="1" arrows="1" fold="1" page="1" pageScale="1" pageWidth="827" pageHeight="1169" math="0" shadow="0">
      <root>
        <mxCell id="0" />
        <mxCell id="1" parent="0" />
        <mxCell id="2yWIFN6WBvDDl7R_odBq-1" value="Room M370" style="html=1;whiteSpace=wrap;" parent="1" vertex="1">
          <mxGeometry x="359" y="130" width="110" height="50" as="geometry" />
        </mxCell>
        <mxCell id="2yWIFN6WBvDDl7R_odBq-2" value="RoomTemperature" style="html=1;whiteSpace=wrap;" parent="1" vertex="1">
          <mxGeometry x="359" y="270" width="110" height="50" as="geometry" />
        </mxCell>
        <mxCell id="2yWIFN6WBvDDl7R_odBq-3" value="Sensor 1" style="html=1;whiteSpace=wrap;" parent="1" vertex="1">
          <mxGeometry x="210" y="240" width="110" height="50" as="geometry" />
        </mxCell>
        <mxCell id="2yWIFN6WBvDDl7R_odBq-4" value="Sensor 2" style="html=1;whiteSpace=wrap;" parent="1" vertex="1">
          <mxGeometry x="210" y="310" width="110" height="50" as="geometry" />
        </mxCell>
        <mxCell id="2yWIFN6WBvDDl7R_odBq-5" value="Heater" style="html=1;whiteSpace=wrap;" parent="1" vertex="1">
          <mxGeometry x="510" y="240" width="110" height="50" as="geometry" />
        </mxCell>
        <mxCell id="2yWIFN6WBvDDl7R_odBq-6" value="Fan" style="html=1;whiteSpace=wrap;" parent="1" vertex="1">
          <mxGeometry x="510" y="310" width="110" height="50" as="geometry" />
        </mxCell>
        <mxCell id="2yWIFN6WBvDDl7R_odBq-7" value="" style="endArrow=classic;html=1;rounded=0;exitX=0.5;exitY=1;exitDx=0;exitDy=0;entryX=0.5;entryY=0;entryDx=0;entryDy=0;" parent="1" source="2yWIFN6WBvDDl7R_odBq-1" target="2yWIFN6WBvDDl7R_odBq-3" edge="1">
          <mxGeometry width="50" height="50" relative="1" as="geometry">
            <mxPoint x="400" y="470" as="sourcePoint" />
            <mxPoint x="450" y="420" as="targetPoint" />
          </mxGeometry>
        </mxCell>
        <mxCell id="2yWIFN6WBvDDl7R_odBq-8" value="" style="endArrow=classic;html=1;rounded=0;exitX=0;exitY=0.5;exitDx=0;exitDy=0;entryX=0;entryY=0.5;entryDx=0;entryDy=0;" parent="1" source="2yWIFN6WBvDDl7R_odBq-1" target="2yWIFN6WBvDDl7R_odBq-4" edge="1">
          <mxGeometry width="50" height="50" relative="1" as="geometry">
            <mxPoint x="160" y="190" as="sourcePoint" />
            <mxPoint x="210" y="140" as="targetPoint" />
            <Array as="points">
              <mxPoint x="170" y="200" />
            </Array>
          </mxGeometry>
        </mxCell>
        <mxCell id="2yWIFN6WBvDDl7R_odBq-9" value="" style="endArrow=classic;html=1;rounded=0;exitX=1;exitY=0.5;exitDx=0;exitDy=0;entryX=0;entryY=0.5;entryDx=0;entryDy=0;" parent="1" source="2yWIFN6WBvDDl7R_odBq-3" target="2yWIFN6WBvDDl7R_odBq-2" edge="1">
          <mxGeometry width="50" height="50" relative="1" as="geometry">
            <mxPoint x="350" y="470" as="sourcePoint" />
            <mxPoint x="400" y="420" as="targetPoint" />
          </mxGeometry>
        </mxCell>
        <mxCell id="2yWIFN6WBvDDl7R_odBq-10" value="" style="endArrow=classic;html=1;rounded=0;exitX=1;exitY=0.5;exitDx=0;exitDy=0;entryX=0.004;entryY=0.602;entryDx=0;entryDy=0;entryPerimeter=0;" parent="1" source="2yWIFN6WBvDDl7R_odBq-4" target="2yWIFN6WBvDDl7R_odBq-2" edge="1">
          <mxGeometry width="50" height="50" relative="1" as="geometry">
            <mxPoint x="330" y="350" as="sourcePoint" />
            <mxPoint x="350" y="310" as="targetPoint" />
          </mxGeometry>
        </mxCell>
        <mxCell id="2yWIFN6WBvDDl7R_odBq-11" value="HeaterStrong" style="html=1;whiteSpace=wrap;" parent="1" vertex="1">
          <mxGeometry x="530" y="70" width="110" height="50" as="geometry" />
        </mxCell>
        <mxCell id="2yWIFN6WBvDDl7R_odBq-12" value="HeaterWeak" style="html=1;whiteSpace=wrap;" parent="1" vertex="1">
          <mxGeometry x="550" y="150" width="110" height="50" as="geometry" />
        </mxCell>
        <mxCell id="2yWIFN6WBvDDl7R_odBq-13" value="FanOn" style="html=1;whiteSpace=wrap;" parent="1" vertex="1">
          <mxGeometry x="510" y="380" width="110" height="50" as="geometry" />
        </mxCell>
        <mxCell id="2yWIFN6WBvDDl7R_odBq-14" value="Room Temp. Inc." style="html=1;whiteSpace=wrap;" parent="1" vertex="1">
          <mxGeometry x="660" y="250" width="110" height="50" as="geometry" />
        </mxCell>
        <mxCell id="2yWIFN6WBvDDl7R_odBq-15" value="Room Temp. Dec." style="html=1;whiteSpace=wrap;" parent="1" vertex="1">
          <mxGeometry x="660" y="360" width="110" height="50" as="geometry" />
        </mxCell>
        <mxCell id="2yWIFN6WBvDDl7R_odBq-17" value="" style="endArrow=classic;html=1;rounded=0;exitX=1;exitY=0.5;exitDx=0;exitDy=0;entryX=0.713;entryY=-0.004;entryDx=0;entryDy=0;entryPerimeter=0;" parent="1" source="2yWIFN6WBvDDl7R_odBq-11" target="2yWIFN6WBvDDl7R_odBq-14" edge="1">
          <mxGeometry width="50" height="50" relative="1" as="geometry">
            <mxPoint x="720" y="210" as="sourcePoint" />
            <mxPoint x="770" y="160" as="targetPoint" />
          </mxGeometry>
        </mxCell>
        <mxCell id="2yWIFN6WBvDDl7R_odBq-18" value="" style="endArrow=classic;html=1;rounded=0;exitX=1;exitY=0.5;exitDx=0;exitDy=0;entryX=0.338;entryY=0.004;entryDx=0;entryDy=0;entryPerimeter=0;" parent="1" source="2yWIFN6WBvDDl7R_odBq-12" target="2yWIFN6WBvDDl7R_odBq-14" edge="1">
          <mxGeometry width="50" height="50" relative="1" as="geometry">
            <mxPoint x="700" y="230" as="sourcePoint" />
            <mxPoint x="750" y="180" as="targetPoint" />
          </mxGeometry>
        </mxCell>
        <mxCell id="2yWIFN6WBvDDl7R_odBq-19" value="" style="endArrow=classic;html=1;rounded=0;exitX=0.25;exitY=0;exitDx=0;exitDy=0;entryX=0;entryY=0.652;entryDx=0;entryDy=0;entryPerimeter=0;" parent="1" source="2yWIFN6WBvDDl7R_odBq-5" target="2yWIFN6WBvDDl7R_odBq-12" edge="1">
          <mxGeometry width="50" height="50" relative="1" as="geometry">
            <mxPoint x="500" y="230" as="sourcePoint" />
            <mxPoint x="550" y="180" as="targetPoint" />
          </mxGeometry>
        </mxCell>
        <mxCell id="2yWIFN6WBvDDl7R_odBq-20" value="" style="endArrow=classic;html=1;rounded=0;exitX=0.091;exitY=0;exitDx=0;exitDy=0;exitPerimeter=0;entryX=0;entryY=0.5;entryDx=0;entryDy=0;" parent="1" source="2yWIFN6WBvDDl7R_odBq-5" target="2yWIFN6WBvDDl7R_odBq-11" edge="1">
          <mxGeometry width="50" height="50" relative="1" as="geometry">
            <mxPoint x="490" y="230" as="sourcePoint" />
            <mxPoint x="540" y="180" as="targetPoint" />
          </mxGeometry>
        </mxCell>
        <mxCell id="2yWIFN6WBvDDl7R_odBq-21" value="" style="endArrow=classic;html=1;rounded=0;exitX=0.5;exitY=1;exitDx=0;exitDy=0;entryX=0.5;entryY=0;entryDx=0;entryDy=0;" parent="1" source="2yWIFN6WBvDDl7R_odBq-6" target="2yWIFN6WBvDDl7R_odBq-13" edge="1">
          <mxGeometry width="50" height="50" relative="1" as="geometry">
            <mxPoint x="630" y="370" as="sourcePoint" />
            <mxPoint x="680" y="320" as="targetPoint" />
          </mxGeometry>
        </mxCell>
        <mxCell id="2yWIFN6WBvDDl7R_odBq-22" value="" style="endArrow=classic;html=1;rounded=0;exitX=1;exitY=0.5;exitDx=0;exitDy=0;entryX=0;entryY=0.5;entryDx=0;entryDy=0;" parent="1" source="2yWIFN6WBvDDl7R_odBq-13" target="2yWIFN6WBvDDl7R_odBq-15" edge="1">
          <mxGeometry width="50" height="50" relative="1" as="geometry">
            <mxPoint x="610" y="500" as="sourcePoint" />
            <mxPoint x="660" y="450" as="targetPoint" />
          </mxGeometry>
        </mxCell>
        <mxCell id="2yWIFN6WBvDDl7R_odBq-23" value="" style="endArrow=classic;html=1;rounded=0;entryX=0.998;entryY=0.42;entryDx=0;entryDy=0;entryPerimeter=0;exitX=0.5;exitY=1;exitDx=0;exitDy=0;" parent="1" source="2yWIFN6WBvDDl7R_odBq-14" target="2yWIFN6WBvDDl7R_odBq-2" edge="1">
          <mxGeometry width="50" height="50" relative="1" as="geometry">
            <mxPoint x="710" y="320" as="sourcePoint" />
            <mxPoint x="820" y="300" as="targetPoint" />
            <Array as="points">
              <mxPoint x="680" y="310" />
              <mxPoint x="630" y="295" />
            </Array>
          </mxGeometry>
        </mxCell>
        <mxCell id="2yWIFN6WBvDDl7R_odBq-24" value="" style="endArrow=classic;html=1;rounded=0;exitX=0.5;exitY=0;exitDx=0;exitDy=0;entryX=1.002;entryY=0.612;entryDx=0;entryDy=0;entryPerimeter=0;" parent="1" source="2yWIFN6WBvDDl7R_odBq-15" target="2yWIFN6WBvDDl7R_odBq-2" edge="1">
          <mxGeometry width="50" height="50" relative="1" as="geometry">
            <mxPoint x="770" y="360" as="sourcePoint" />
            <mxPoint x="820" y="310" as="targetPoint" />
            <Array as="points">
              <mxPoint x="690" y="320" />
              <mxPoint x="580" y="300" />
            </Array>
          </mxGeometry>
        </mxCell>
        <mxCell id="2yWIFN6WBvDDl7R_odBq-25" value="Opt. Cond. (&amp;gt;15, &amp;lt;=25)" style="html=1;whiteSpace=wrap;" parent="1" vertex="1">
          <mxGeometry x="370" y="360" width="110" height="50" as="geometry" />
        </mxCell>
        <mxCell id="2yWIFN6WBvDDl7R_odBq-26" value="" style="endArrow=classic;html=1;rounded=0;exitX=0.464;exitY=0;exitDx=0;exitDy=0;exitPerimeter=0;entryX=0.5;entryY=1;entryDx=0;entryDy=0;" parent="1" source="2yWIFN6WBvDDl7R_odBq-25" target="2yWIFN6WBvDDl7R_odBq-2" edge="1">
          <mxGeometry width="50" height="50" relative="1" as="geometry">
            <mxPoint x="360" y="390" as="sourcePoint" />
            <mxPoint x="410" y="340" as="targetPoint" />
          </mxGeometry>
        </mxCell>
        <mxCell id="u1YsoiVF5cD6tGNI0aeR-1" value="" style="endArrow=classic;html=1;rounded=0;exitX=0.75;exitY=1;exitDx=0;exitDy=0;" edge="1" parent="1" source="2yWIFN6WBvDDl7R_odBq-1">
          <mxGeometry width="50" height="50" relative="1" as="geometry">
            <mxPoint x="440" y="250" as="sourcePoint" />
            <mxPoint x="520" y="240" as="targetPoint" />
          </mxGeometry>
        </mxCell>
        <mxCell id="u1YsoiVF5cD6tGNI0aeR-2" value="" style="endArrow=classic;html=1;rounded=0;exitX=0.551;exitY=1.003;exitDx=0;exitDy=0;exitPerimeter=0;entryX=0;entryY=0.4;entryDx=0;entryDy=0;entryPerimeter=0;" edge="1" parent="1" source="2yWIFN6WBvDDl7R_odBq-1" target="2yWIFN6WBvDDl7R_odBq-6">
          <mxGeometry width="50" height="50" relative="1" as="geometry">
            <mxPoint x="410" y="250" as="sourcePoint" />
            <mxPoint x="460" y="200" as="targetPoint" />
          </mxGeometry>
        </mxCell>
      </root>
    </mxGraphModel>
  </diagram>
</mxfile>
